<mxfile host="app.diagrams.net" modified="2023-07-05T06:59:55.588Z" agent="Mozilla/5.0 (Windows NT 10.0; Win64; x64) AppleWebKit/537.36 (KHTML, like Gecko) Chrome/114.0.0.0 Safari/537.36" version="21.5.2" etag="JVAoRp6f1P7zPYaZniy9" type="github">
  <diagram name="第 1 页" id="h1LgQX2prmAivqoAXEI5">
    <mxGraphModel>
      <root>
        <mxCell id="0" />
        <mxCell id="1" parent="0" />
      </root>
    </mxGraphModel>
  </diagram>
</mxfile>
